<?xml version="1.0" standalone="yes"?>
<svg xmlns="http://www.w3.org/2000/svg" width="533" height="533">
<path style="fill:#ffffff; stroke:none;" d="M0 0L0 533L533 533L533 0L0 0z"/>
<path style="fill:#fad782; stroke:none;" d="M234 259L395 259L436 258.576L449 256C426.02 261.471 398.563 258 375 258L235 258C240.211 240.284 254.325 222.938 263.576 207C288.34 164.33 316.023 123.067 340 80L341 80L444 249C444.109 238.001 429.032 221.388 423.4 212C404.37 180.283 385.574 148.351 365.95 117C359.948 107.412 354.435 97.507 348.308 88C346.587 85.3298 343.92 79.6358 340.145 79.6358C336.369 79.6358 333.803 86.3289 332.2 89L313.6 120C294.853 151.247 276.472 182.711 257.799 214C250.122 226.865 235.548 243.889 234 259z"/>
<path style="fill:#fc3350; stroke:none;" d="M340 80C310.88 117.889 287.93 163.576 264.15 205C255.147 220.682 238.225 240.129 235 258L448 257C443.666 241.983 431.619 227.364 423.6 214C406.355 185.258 389.079 156.493 371.424 128C362.404 113.442 353.878 90.245 340 80z"/>
<path style="fill:#fad782; stroke:none;" d="M88 96L89 96C89.3284 85.9167 98.2235 88 106 88C97.4349 84.4059 88.0907 85.993 88 96z"/>
<path style="fill:#fc3350; stroke:none;" d="M106 87L106 88L146 88C135.488 83.589 117.434 87 106 87z"/>
<path style="fill:#fad782; stroke:none;" d="M146 87L146 88L180 88L146 87z"/>
<path style="fill:#fc3350; stroke:none;" d="M90 88L91 89L90 88z"/>
<path style="fill:#3099b1; stroke:none;" d="M89 104L90 104C90 96.5155 88.5967 89.3062 98 89C87.9612 84.8277 87.4004 97.2023 89 104z"/>
<path style="fill:#201849; stroke:none;" d="M90 257L170 257L171 226C188.642 223.759 205.483 218.949 218.999 206.826C248.355 180.498 248.164 134.258 219.83 107.428C197.517 86.2999 171.481 89 143 89C130.285 89 117.726 87.9394 105 88.0008C101.463 88.0178 93.4685 87.4974 91.0278 90.6026C89.0477 93.1218 90.1153 98.0041 89.8302 101C88.7536 112.314 89 123.625 89 135C89 175.659 89.9731 216.426 90 257z"/>
<path style="fill:#3099b1; stroke:none;" d="M125 88L125 89L179 89L161 88L125 88z"/>
<path style="fill:#fc3350; stroke:none;" d="M179 88L179 89L184 89L179 88z"/>
<path style="fill:#fad782; stroke:none;" d="M184 88L184 89L188 89L184 88z"/>
<path style="fill:#3099b1; stroke:none;" d="M184 89L184 90L189 90L184 89z"/>
<path style="fill:#fc3350; stroke:none;" d="M189.667 89.3333L190.333 89.6667L189.667 89.3333z"/>
<path style="fill:#fad782; stroke:none;" d="M191 89L192 90L191 89z"/>
<path style="fill:#3099b1; stroke:none;" d="M191.667 90.3333L192.333 90.6667L191.667 90.3333z"/>
<path style="fill:#fc3350; stroke:none;" d="M193 90L194 91L193 90z"/>
<path style="fill:#fad782; stroke:none;" d="M194.667 90.3333L195.333 90.6667L194.667 90.3333z"/>
<path style="fill:#3099b1; stroke:none;" d="M194 91L194 92C215.587 99.3506 238.904 122.007 240 146L241 146C240.484 121.115 217.661 96.6201 194 91z"/>
<path style="fill:#fc3350; stroke:none;" d="M196 91L197 92L196 91z"/>
<path style="fill:#fad782; stroke:none;" d="M197 91L198 92L197 91z"/>
<path style="fill:#fc3350; stroke:none;" d="M199 92L200 93L199 92M201 93L202 94L201 93z"/>
<path style="fill:#fad782; stroke:none;" d="M202 93L203 94L202 93z"/>
<path style="fill:#fc3350; stroke:none;" d="M203 94L204 95L203 94M205 95L206 96L205 95z"/>
<path style="fill:#fad782; stroke:none;" d="M207 96L208 97L207 96M209 97L210 98L209 97z"/>
<path style="fill:#fc3350; stroke:none;" d="M210 98L211 99L210 98z"/>
<path style="fill:#fad782; stroke:none;" d="M212 99L213 100L212 99z"/>
<path style="fill:#fc3350; stroke:none;" d="M213 100L214 101L213 100z"/>
<path style="fill:#fad782; stroke:none;" d="M215 101L216 102L215 101z"/>
<path style="fill:#fc3350; stroke:none;" d="M88 102L88 165L89 165L89 122L88 102M217 103L218 104L217 103z"/>
<path style="fill:#fad782; stroke:none;" d="M219 104L220 105L219 104M220 105L221 106L220 105M221 106L222 107L221 106M222 107L223 108L222 107M223 108L224 109L223 108M224 109L225 110L224 109M225 110L226 111L225 110M226 111L227 112L226 111z"/>
<path style="fill:#fc3350; stroke:none;" d="M227 113L228 114L227 113M228 114L229 115L228 114z"/>
<path style="fill:#fad782; stroke:none;" d="M229 115L230 116L229 115M230 116L231 117L230 116z"/>
<path style="fill:#fc3350; stroke:none;" d="M230 117L231 118L230 117z"/>
<path style="fill:#fad782; stroke:none;" d="M231 118L232 119L231 118M232 119L233 120L232 119z"/>
<path style="fill:#fc3350; stroke:none;" d="M232 120L233 121L232 120z"/>
<path style="fill:#fad782; stroke:none;" d="M233 121L234 122L233 121z"/>
<path style="fill:#fc3350; stroke:none;" d="M233 122L234 123L233 122z"/>
<path style="fill:#fad782; stroke:none;" d="M234 123L235 124L234 123z"/>
<path style="fill:#fc3350; stroke:none;" d="M235 125L236 126L235 125z"/>
<path style="fill:#fad782; stroke:none;" d="M236 127L237 128L236 127M237 129L238 130L237 129z"/>
<path style="fill:#fc3350; stroke:none;" d="M237 130L238 131L237 130z"/>
<path style="fill:#fad782; stroke:none;" d="M238 131L239 132L238 131z"/>
<path style="fill:#fc3350; stroke:none;" d="M238 132L239 133L238 132z"/>
<path style="fill:#fad782; stroke:none;" d="M239 134L240 135L239 134z"/>
<path style="fill:#fc3350; stroke:none;" d="M239 135L240 136L239 135z"/>
<path style="fill:#fad782; stroke:none;" d="M240 137L241 138L240 137z"/>
<path style="fill:#fc3350; stroke:none;" d="M240.333 138.667L240.667 139.333L240.333 138.667z"/>
<path style="fill:#fad782; stroke:none;" d="M241.333 141.667L241.667 142.333L241.333 141.667z"/>
<path style="fill:#fc3350; stroke:none;" d="M241 143L241 147L242 147L241 143z"/>
<path style="fill:#3099b1; stroke:none;" d="M241 147C241 156.567 241.207 165.7 238.572 175C229.447 207.202 201.122 220.325 171 226L171 236L172 236C172.163 222.275 193.923 223.668 204 218.63C226.236 207.511 252.267 173.852 241 147z"/>
<path style="fill:#fad782; stroke:none;" d="M242 147L242 167L243 167L242 147M87 155L87 231L88 231L88 179L87 155z"/>
<path style="fill:#3099b1; stroke:none;" d="M88 165L88 169L89 169L88 165z"/>
<path style="fill:#fc3350; stroke:none;" d="M241.333 168.667L241.667 169.333L241.333 168.667M88 169L89 170L88 169z"/>
<path style="fill:#3099b1; stroke:none;" d="M88 170L88 258L171 258L171 249L170 249L170 257L90 257L89 198L88 170z"/>
<path style="fill:#fad782; stroke:none;" d="M241.333 170.667L241.667 171.333L241.333 170.667z"/>
<path style="fill:#fc3350; stroke:none;" d="M240.333 173.667L240.667 174.333L240.333 173.667z"/>
<path style="fill:#fad782; stroke:none;" d="M240 175L241 176L240 175z"/>
<path style="fill:#fc3350; stroke:none;" d="M239 177L240 178L239 177z"/>
<path style="fill:#fad782; stroke:none;" d="M239 178L240 179L239 178z"/>
<path style="fill:#fc3350; stroke:none;" d="M238 180L239 181L238 180z"/>
<path style="fill:#fad782; stroke:none;" d="M238 181L239 182L238 181M237 183L238 184L237 183z"/>
<path style="fill:#fc3350; stroke:none;" d="M236 185L237 186L236 185z"/>
<path style="fill:#fad782; stroke:none;" d="M236 186L237 187L236 186z"/>
<path style="fill:#fc3350; stroke:none;" d="M235 187L236 188L235 187z"/>
<path style="fill:#fad782; stroke:none;" d="M235 188L236 189L235 188z"/>
<path style="fill:#fc3350; stroke:none;" d="M234 189L235 190L234 189z"/>
<path style="fill:#fad782; stroke:none;" d="M233 191L234 192L233 191z"/>
<path style="fill:#fc3350; stroke:none;" d="M232 192L233 193L232 192z"/>
<path style="fill:#fad782; stroke:none;" d="M232 193L233 194L232 193z"/>
<path style="fill:#fc3350; stroke:none;" d="M231 194L232 195L231 194z"/>
<path style="fill:#fad782; stroke:none;" d="M230 196L231 197L230 196z"/>
<path style="fill:#fc3350; stroke:none;" d="M228 198L229 199L228 198z"/>
<path style="fill:#fad782; stroke:none;" d="M227 200L228 201L227 200M226 201L227 202L226 201M225 202L226 203L225 202z"/>
<path style="fill:#fc3350; stroke:none;" d="M223 204L224 205L223 204M222 205L223 206L222 205z"/>
<path style="fill:#fad782; stroke:none;" d="M221 206L222 207L221 206M220 207L221 208L220 207M219 208L220 209L219 208M218 209L219 210L218 209z"/>
<path style="fill:#fc3350; stroke:none;" d="M216 210L217 211L216 210M215 211L216 212L215 211z"/>
<path style="fill:#fad782; stroke:none;" d="M214 212L215 213L214 212z"/>
<path style="fill:#fc3350; stroke:none;" d="M212 213L213 214L212 213z"/>
<path style="fill:#fad782; stroke:none;" d="M211 214L212 215L211 214z"/>
<path style="fill:#fc3350; stroke:none;" d="M209 215L210 216L209 215M207 216L208 217L207 216z"/>
<path style="fill:#fad782; stroke:none;" d="M208 216L209 217L208 216M206 217L207 218L206 217M204 218L205 219L204 218M202 219L203 220L202 219z"/>
<path style="fill:#fc3350; stroke:none;" d="M199 220L200 221L199 220z"/>
<path style="fill:#fad782; stroke:none;" d="M200 220L201 221L200 220z"/>
<path style="fill:#fc3350; stroke:none;" d="M197 221L198 222L197 221z"/>
<path style="fill:#fad782; stroke:none;" d="M198 221L199 222L198 221z"/>
<path style="fill:#fc3350; stroke:none;" d="M194 222L195 223L194 222z"/>
<path style="fill:#fad782; stroke:none;" d="M195 222L196 223L195 222z"/>
<path style="fill:#fc3350; stroke:none;" d="M190.667 223.333L191.333 223.667L190.667 223.333z"/>
<path style="fill:#fad782; stroke:none;" d="M192 223L193 224L192 223z"/>
<path style="fill:#fc3350; stroke:none;" d="M186.667 224.333L187.333 224.667L186.667 224.333z"/>
<path style="fill:#fad782; stroke:none;" d="M188.667 224.333L189.333 224.667L188.667 224.333z"/>
<path style="fill:#fc3350; stroke:none;" d="M180.667 225.333L181.333 225.667L180.667 225.333z"/>
<path style="fill:#fad782; stroke:none;" d="M182 225L182 226L185 226L182 225z"/>
<path style="fill:#fc3350; stroke:none;" d="M176 226L177 227L176 226z"/>
<path style="fill:#fad782; stroke:none;" d="M177.667 226.333L178.333 226.667L177.667 226.333z"/>
<path style="fill:#fc3350; stroke:none;" d="M172 228L173 229L172 228z"/>
<path style="fill:#fad782; stroke:none;" d="M172.333 229.667L172.667 230.333L172.333 229.667z"/>
<path style="fill:#fc3350; stroke:none;" d="M171 236L171 258L172 258L171 236z"/>
<path style="fill:#fad782; stroke:none;" d="M445 250L446 251L445 250M446.333 251.667L446.667 252.333L446.333 251.667M447.333 253.667L447.667 254.333L447.333 253.667M88 258L88 259L172 259L146 258L88 258M89 273L88 400L88 431L89.6034 441.972L100 443L128 443L234 444L234 273L175 274L173 331L151 317L108 285.29L89 273M261 276L261 277L277 277L261 276z"/>
<path style="fill:#3099b1; stroke:none;" d="M255 277C256.405 284.882 261.68 292.105 265.576 299C273.117 312.348 280.704 325.671 288.281 339C291.708 345.029 298.257 353.033 299.149 360C300.052 367.054 290.828 378.058 287.421 384C276.038 403.856 262.806 423.85 254 445L433 445C426.957 424.065 410.203 403.135 399.694 384C396.313 377.842 388.231 368.143 388.136 361C388.038 353.689 397.014 343.218 400.579 337C411.599 317.778 424.475 298.476 433 278C415.8 272.916 392.921 276 375 276C334.985 276 294.941 277 255 277z"/>
<path style="fill:#fad782; stroke:none;" d="M411 276L411 277L427 277L411 276M432 277L433 278L432 277M254 278L255 279L254 278M432 279L433 280L432 279M255 280L256 281L255 280M431 281L432 282L431 281M256 282L257 283L256 282M430 283L431 284L430 283M257 284L258 285L257 284M429 285L430 286L429 285M428 287L429 288L428 287M260 289L261 290L260 289M261 291L262 292L261 291M425 292L426 293L425 292M262 293L263 294L262 293M424 294L425 295L424 294M263 295L264 296L263 295M423 296L424 297L423 296M265 298L266 299L265 298M266 300L267 301L266 300M420 301L421 302L420 301M267 302L268 303L267 302M419 303L420 304L419 303M268 304L269 305L268 304M418 305L419 306L418 305M270 307L271 308L270 307M416 308L417 309L416 308M271 309L272 310L271 309M415 310L416 311L415 310M272 311L273 312L272 311M414 312L415 313L414 312M274 314L275 315L274 314M275 316L276 317L275 316M411 317L412 318L411 317M276 318L277 319L276 318M410 319L411 320L410 319M278 321L279 322L278 321M409 321L410 322L409 321M279 323L280 324L279 323M407 324L408 325L407 324M280 325L281 326L280 325M406 326L407 327L406 326M282 328L283 329L282 328M405 328L406 329L405 328M283 330L284 331L283 330M403 331L404 332L403 331M284 332L285 333L284 332M402 333L403 334L402 333M286 335L287 336L286 335M401 335L402 336L401 335M287 337L288 338L287 337M399 338L400 339L399 338M288 339L289 340L288 339M398 340L399 341L398 340M290 342L291 343L290 342M397 342L398 343L397 342M291 344L292 345L291 344M395 345L396 346L395 345M292 346L293 347L292 346M394 347L395 348L394 347M393 349L394 350L393 349M295 351L296 352L295 351M391 352L392 353L391 352M296 353L297 354L296 353M390 354L391 355L390 354M297 355L298 356L297 355M389 356L390 357L389 356M298 357L299 358L298 357M387 359L388 360L387 359M387 361L388 362L387 361M299 362L300 363L299 362M388 363L389 364L388 363M298 364L299 365L298 364M389 365L390 366L389 365M297 366L298 367L297 366M390 367L391 368L390 367M391 369L392 370L391 369M294 371L295 372L294 371M293 373L294 374L293 373M394 374L395 375L394 374M292 375L293 376L292 375M395 376L396 377L395 376M290 378L291 379L290 378M396 378L397 379L396 378M289 380L290 381L289 380M397 380L398 381L397 380M288 382L289 383L288 382M400 385L401 386L400 385M285 387L286 388L285 387M401 387L402 388L401 387M284 389L285 390L284 389M402 389L403 390L402 389M281 394L282 395L281 394M405 394L406 395L405 394M280 396L281 397L280 396M406 396L407 397L406 396M279 398L280 399L279 398M407 398L408 399L407 398M277 401L278 402L277 401M276 403L277 404L276 403M410 403L411 404L410 403M275 405L276 406L275 405M411 405L412 406L411 405M412 407L413 408L412 407M273 408L274 409L273 408M272 410L273 411L272 410M414 410L415 411L414 410M271 412L272 413L271 412M415 412L416 413L415 412M416 414L417 415L416 414M269 415L270 416L269 415M268 417L269 418L268 417M418 417L419 418L418 417M267 419L268 420L267 419M419 419L420 420L419 419M420 421L421 422L420 421M264 424L265 425L264 424M263 426L264 427L263 426M423 426L424 427L423 426M262 428L263 429L262 428M424 428L425 429L424 428M261 430L262 431L261 430M426 431L427 432L426 431M427 433L428 434L427 433M258 435L259 436L258 435M428 435L429 436L428 435M257 437L258 438L257 437M256 439L257 440L256 439M431 440L432 441L431 440M255 441L256 442L255 441M432 442L433 443L432 442M254 443L255 444L254 443M256 445L256 446L264 446L256 445M426 445L426 446L431 446L426 445z"/>
</svg>
